<svg width="21" height="11" viewBox="0 0 21 11" fill="none" xmlns="http://www.w3.org/2000/svg">
<path d="M11.043 10.5964L20.4697 1.16542C20.5586 1.05689 20.6039 0.919203 20.597 0.779107C20.59 0.639011 20.5312 0.506503 20.432 0.407318C20.3328 0.308133 20.2003 0.249349 20.0602 0.242384C19.9201 0.235419 19.7825 0.28077 19.6739 0.369628L10.6447 9.39374L1.61972 0.369628C1.56732 0.316864 1.50499 0.274988 1.43634 0.246413C1.36768 0.217837 1.29405 0.203125 1.21969 0.203125C1.14532 0.203125 1.07169 0.217837 1.00304 0.246413C0.934383 0.274988 0.872061 0.316864 0.819658 0.369628C0.712479 0.474701 0.651163 0.617873 0.649071 0.767951C0.649158 0.84242 0.664316 0.916101 0.693634 0.984557C0.72295 1.05301 0.76582 1.11483 0.819658 1.16627L10.2472 10.5921C10.3522 10.6982 10.495 10.7582 10.6442 10.759C10.7935 10.7598 10.9369 10.7013 11.043 10.5964Z" fill="#EBBA87"/>
</svg>
