<svg width="30" height="30" viewBox="0 0 30 30" fill="none" xmlns="http://www.w3.org/2000/svg">
<path d="M8.80424 14.6457L8.45077 14.9991L8.80416 15.3527L22.3464 28.9012L22.3464 28.9013C22.4844 29.0392 22.4844 29.257 22.3464 29.395L22.3464 29.3949L22.3398 29.4017C22.278 29.4659 22.1917 29.5 22.1027 29.5C22.0223 29.5 21.9292 29.4652 21.859 29.395L21.8589 29.3949L7.70698 15.2492C7.56903 15.1113 7.56903 14.8935 7.70698 14.7555L21.859 0.603462C21.997 0.465513 22.2148 0.465513 22.3527 0.603462C22.4907 0.741411 22.4907 0.959223 22.3527 1.09717L8.80424 14.6457Z" stroke="#EBBA87"/>
</svg>
