<svg width="30" height="30" viewBox="0 0 30 30" fill="none" xmlns="http://www.w3.org/2000/svg">
<path d="M21.1958 14.6457L21.5492 14.9991L21.1958 15.3527L7.65364 28.9012L7.65356 28.9013C7.51561 29.0392 7.51561 29.257 7.65356 29.395L7.65362 29.3949L7.66016 29.4017C7.72196 29.4659 7.80832 29.5 7.89727 29.5C7.9777 29.5 8.07078 29.4652 8.14098 29.395L8.14106 29.3949L22.293 15.2492C22.431 15.1113 22.431 14.8935 22.293 14.7555L8.14098 0.603462C8.00303 0.465513 7.78522 0.465513 7.64727 0.603462C7.50932 0.741411 7.50932 0.959223 7.64727 1.09717L21.1958 14.6457Z" stroke="#EBBA87"/>
</svg>
