<svg width="30" height="31" viewBox="0 0 30 31" fill="none" xmlns="http://www.w3.org/2000/svg">
<path d="M14.7288 0.75C18.6132 0.75 22.3384 2.33474 25.085 5.1556C27.8316 7.97646 29.3747 11.8024 29.3747 15.7917C29.3747 19.781 27.8316 23.6069 25.085 26.4277C22.3384 29.2486 18.6132 30.8333 14.7288 30.8333C10.8445 30.8333 7.1193 29.2486 4.37267 26.4277C1.62605 23.6069 0.0830078 19.781 0.0830078 15.7917C0.0830078 11.8024 1.62605 7.97646 4.37267 5.1556C7.1193 2.33474 10.8445 0.75 14.7288 0.75ZM14.7288 2.33333C11.2534 2.33333 7.9203 3.75126 5.4628 6.27519C3.00529 8.79912 1.62467 12.2223 1.62467 15.7917C1.62467 19.361 3.00529 22.7842 5.4628 25.3081C7.9203 27.8321 11.2534 29.25 14.7288 29.25C18.2043 29.25 21.5374 27.8321 23.9949 25.3081C26.4524 22.7842 27.833 19.361 27.833 15.7917C27.833 12.2223 26.4524 8.79912 23.9949 6.27519C21.5374 3.75126 18.2043 2.33333 14.7288 2.33333ZM13.958 22.9167V19.75H15.4997V22.9167H13.958ZM13.958 16.5833V8.66667H15.4997V16.5833H13.958Z" fill="#EBBA87"/>
</svg>
