<svg width="30" height="30" viewBox="0 0 30 30" fill="none" xmlns="http://www.w3.org/2000/svg">
<path d="M14.7288 0.625C18.6132 0.625 22.3384 2.16804 25.085 4.91467C27.8316 7.66129 29.3747 11.3865 29.3747 15.2708C29.3747 19.1552 27.8316 22.8804 25.085 25.627C22.3384 28.3736 18.6132 29.9167 14.7288 29.9167C10.8445 29.9167 7.1193 28.3736 4.37267 25.627C1.62605 22.8804 0.0830078 19.1552 0.0830078 15.2708C0.0830078 11.3865 1.62605 7.66129 4.37267 4.91467C7.1193 2.16804 10.8445 0.625 14.7288 0.625ZM14.7288 2.16667C11.2534 2.16667 7.9203 3.54728 5.4628 6.00479C3.00529 8.4623 1.62467 11.7954 1.62467 15.2708C1.62467 18.7463 3.00529 22.0794 5.4628 24.5369C7.9203 26.9944 11.2534 28.375 14.7288 28.375C18.2043 28.375 21.5374 26.9944 23.9949 24.5369C26.4524 22.0794 27.833 18.7463 27.833 15.2708C27.833 11.7954 26.4524 8.4623 23.9949 6.00479C21.5374 3.54728 18.2043 2.16667 14.7288 2.16667ZM13.958 6.79167H15.4997V15.1521L22.7393 19.3316L21.9685 20.6667L13.958 16.0417V6.79167Z" fill="#EBBA87"/>
</svg>
