<svg width="37" height="37" viewBox="0 0 37 37" fill="none" xmlns="http://www.w3.org/2000/svg">
<path d="M17.7288 4.625C21.6132 4.625 25.3384 6.16804 28.085 8.91467C30.8316 11.6613 32.3747 15.3865 32.3747 19.2708C32.3747 23.1552 30.8316 26.8804 28.085 29.627C25.3384 32.3736 21.6132 33.9167 17.7288 33.9167C13.8445 33.9167 10.1193 32.3736 7.37267 29.627C4.62605 26.8804 3.08301 23.1552 3.08301 19.2708C3.08301 15.3865 4.62605 11.6613 7.37267 8.91467C10.1193 6.16804 13.8445 4.625 17.7288 4.625ZM17.7288 6.16667C14.2534 6.16667 10.9203 7.54728 8.4628 10.0048C6.00529 12.4623 4.62467 15.7954 4.62467 19.2708C4.62467 22.7463 6.00529 26.0794 8.4628 28.5369C10.9203 30.9944 14.2534 32.375 17.7288 32.375C21.2043 32.375 24.5374 30.9944 26.9949 28.5369C29.4524 26.0794 30.833 22.7463 30.833 19.2708C30.833 15.7954 29.4524 12.4623 26.9949 10.0048C24.5374 7.54728 21.2043 6.16667 17.7288 6.16667Z" fill="#EBBA87"/>
<g clip-path="url(#clip0)">
<path d="M16.4001 20.853L6.09082 2.35223H7.8381L18.0909 20.8079L28.3443 2.35223H30.0908L19.7822 20.853H27.0908V22.3515H18.9489L18.8412 22.547V26.8515L27.0908 26.8522V28.353L18.8412 28.3522V37.3522H17.341V28.3522H9.09082V26.8515H17.341V22.547L17.2334 22.3515L9.09082 22.3507V20.8522L16.4001 20.853Z" fill="#EBBA87" stroke="#EBBA87"/>
</g>
<defs>
<clipPath id="clip0">
<rect x="10.0908" y="11.3522" width="15.1364" height="15.9773" fill="white"/>
</clipPath>
</defs>
</svg>
