<svg width="80" height="48" viewBox="0 0 80 48" fill="none" xmlns="http://www.w3.org/2000/svg">
<rect x="0.5" y="0.5" width="79" height="47" rx="7.5" fill="white" stroke="#D8D8D8"/>
<path d="M40 32.8889C42.4127 30.7301 43.9365 27.5555 43.9365 24C43.9365 20.4444 42.4127 17.3333 40 15.1111C37.9047 13.2063 35.0476 12 32 12C25.3968 12 20 17.3968 20 24C20 30.6032 25.3968 35.9365 32 35.9365C35.0476 36 37.9047 34.7936 40 32.8889Z" fill="#07A9E2"/>
<path d="M20 24C20 30.6032 25.3968 35.9365 32 35.9365C35.1111 35.9365 37.9047 34.7936 40 32.8254C42.4127 30.6666 43.9365 27.492 43.9365 23.9365C43.9365 20.3809 42.4127 17.3333 40 15.1111C37.9047 13.2063 35.0476 12 32 12" fill="#009DDD"/>
<path d="M39.9997 15.1111C37.9044 13.2063 35.0473 12 31.9997 12C31.8092 12 31.6187 12 31.4283 12C27.6822 14.7302 25.2695 19.1111 25.2695 24C25.2695 28.8889 27.6822 33.2698 31.3648 35.9365C31.5552 35.9365 31.7457 35.9365 31.9362 35.9365C35.0473 35.9365 37.8409 34.7936 39.9362 32.8254C42.3489 30.6666 43.8727 27.492 43.8727 23.9365C43.8727 20.3809 42.4124 17.3333 39.9997 15.1111Z" fill="#0284CC"/>
<path d="M48.0634 12C44.9523 12 42.1586 13.1429 39.9999 15.1111C39.5555 15.4921 39.1745 15.9365 38.7936 16.3809H41.2063C41.5237 16.7619 41.8412 17.2063 42.0952 17.6508H37.8412C37.5872 18.0952 37.3333 18.4762 37.1428 18.9206H42.7936C42.984 19.3651 43.1745 19.746 43.3015 20.1905H36.6983C36.5713 20.6349 36.4444 21.0159 36.3174 21.4603H43.6825C43.8729 22.2857 43.9364 23.1111 43.9364 24C43.9364 25.3333 43.7459 26.6032 43.3015 27.8095H36.6983C36.8253 28.254 37.0158 28.6349 37.2063 29.0793H42.8571C42.6666 29.5238 42.4126 29.9682 42.1586 30.3492H37.9047C38.1587 30.7936 38.4761 31.2381 38.7936 31.619H41.2063C40.8253 32.0635 40.4444 32.5079 39.9999 32.8889C42.1586 34.7936 44.9523 36 48.0634 36C54.6666 36 59.9999 30.6666 59.9999 24.0635C59.9999 17.3968 54.6666 12 48.0634 12Z" fill="#FF2957"/>
<path d="M48.0634 12C44.9523 12 42.1586 13.1429 39.9999 15.1111C39.5555 15.4921 39.1745 15.9365 38.7936 16.3809H41.2063C41.5237 16.7619 41.8412 17.2063 42.0952 17.6508H37.8412C37.5872 18.0952 37.3333 18.4762 37.1428 18.9206H42.7936C42.984 19.3651 43.1745 19.746 43.3015 20.1905H36.6983C36.5713 20.6349 36.4444 21.0159 36.3174 21.4603H43.6825C43.8729 22.2857 43.9364 23.1111 43.9364 24C43.9364 25.3333 43.7459 26.6032 43.3015 27.8095H36.6983C36.8253 28.254 37.0158 28.6349 37.2063 29.0793H42.8571C42.6666 29.5238 42.4126 29.9682 42.1586 30.3492H37.9047C38.1587 30.7936 38.4761 31.2381 38.7936 31.619H41.2063C40.8253 32.0635 40.4444 32.5079 39.9999 32.8889C42.1586 34.7936 44.9523 36 48.0634 36C54.6666 36 59.9999 30.6666 59.9999 24.0635" fill="#ED1C2E"/>
<path d="M40 32.8888C42.4127 30.7301 43.9365 27.5555 43.9365 24C43.9365 20.4444 42.4127 17.3333 40 15.1111V32.8888Z" fill="#0466B5"/>
<path d="M55.873 26.6032C55.873 26.4127 56.0635 26.2222 56.254 26.2222C56.4445 26.2222 56.635 26.4127 56.635 26.6032C56.635 26.7937 56.4445 26.9841 56.254 26.9841C56.0635 26.9841 55.873 26.7937 55.873 26.6032ZM56.254 26.9206C56.4445 26.9206 56.508 26.7937 56.508 26.6032C56.508 26.4127 56.381 26.3492 56.254 26.3492C56.0635 26.3492 55.9365 26.4762 55.9365 26.6032C55.9365 26.7302 56.127 26.9206 56.254 26.9206ZM56.254 26.7302H56.1905V26.4127H56.3175C56.381 26.4127 56.381 26.4127 56.381 26.4127L56.4445 26.4762C56.4445 26.5397 56.4445 26.5397 56.381 26.5397L56.4445 26.6667H56.381L56.3175 26.5397H56.254V26.7302ZM56.254 26.5397C56.3175 26.5397 56.3175 26.5397 56.3175 26.5397C56.3175 26.5397 56.3175 26.5397 56.3175 26.4762H56.254V26.5397Z" fill="white"/>
<path d="M39.9999 15.1111C39.5555 15.4921 39.1745 15.9365 38.7936 16.381H41.2063C41.5237 16.7619 41.8412 17.2064 42.0952 17.6508H37.8412C37.5872 18.0952 37.3333 18.4762 37.1428 18.9206H42.7936C42.984 19.3651 43.1745 19.746 43.3015 20.1905H36.6983C36.5713 20.6349 36.4444 21.0159 36.3174 21.4603H43.6825C43.8729 22.2857 43.9364 23.1111 43.9364 24C43.9364 25.3333 43.7459 26.6032 43.3015 27.8095H36.6983C36.8253 28.254 37.0158 28.6349 37.2063 29.0794H42.8571C42.6666 29.5238 42.4126 29.9682 42.1586 30.3492H37.9047C38.1587 30.7936 38.4761 31.2381 38.7936 31.619H41.2063C40.8253 32.0635 40.4444 32.5079 39.9999 32.8889C42.1586 34.7936 44.9523 36 48.0634 36C48.2539 36 48.4444 36 48.6348 36C52.3174 33.3333 54.7301 28.9524 54.7301 24.0635C54.7301 19.1746 52.3174 14.7937 48.6348 12.127C48.4444 12.127 48.2539 12.127 48.0634 12.127C44.9523 12 42.1586 13.2064 39.9999 15.1111Z" fill="#D1094B"/>
<path d="M30.4762 26.9841H28.9524L29.8413 22.3492L27.8095 26.9841H26.4762L26.2222 22.3492L25.3333 26.9841H24L25.1429 20.8889H27.4921L27.619 24.6984L29.2698 20.8889H31.6825L30.4762 26.9841Z" fill="white"/>
<path d="M29.0147 24.3175L29.9036 22.3492L29.2051 26.0318C29.2686 26.3492 29.3321 26.7302 29.4591 27.0476H30.475L31.6178 20.9524H29.3956C29.1416 21.9048 28.9512 22.9841 28.9512 24.0635C29.0147 24.127 29.0147 24.1905 29.0147 24.3175Z" fill="#DCE5E5"/>
<path d="M47.1109 26.9206C46.6664 27.0476 46.4125 27.1111 46.0315 27.1111C45.2696 27.1111 44.8887 26.7302 44.8887 26.0318C44.8887 25.9048 44.8887 25.7778 44.9522 25.5873L45.0157 25.0794L45.0791 24.6984L45.7776 20.9524H47.2379L47.0474 22.0952H47.8093L47.6188 23.2381H46.8569L46.476 25.2698C46.476 25.3333 46.4125 25.4603 46.4125 25.4603C46.4125 25.7143 46.603 25.8413 46.9204 25.8413C47.1109 25.8413 47.2379 25.8413 47.3014 25.7778L47.1109 26.9206Z" fill="#DCE5E5"/>
<path d="M51.4931 22.0951C51.3661 22.0316 51.3661 22.0316 51.3027 22.0316C51.2392 22.0316 51.1757 22.0316 51.1757 21.9681C51.1122 21.9681 51.1122 21.9681 50.9852 21.9681C50.4773 21.9681 50.1598 22.1586 49.7154 22.7935L49.8423 22.0316H48.509L47.6201 26.9839H49.1439C49.6519 23.9363 49.9058 23.4284 50.6042 23.4284C50.6677 23.4284 50.7312 23.4284 50.7947 23.4284L50.9852 23.4919L51.4931 22.0951Z" fill="#DCE5E5"/>
<path d="M41.2062 23.6189C41.2062 24.2538 41.5871 24.6982 42.349 24.9522C42.984 25.2062 43.0475 25.2697 43.0475 25.5236C43.0475 25.8411 42.7935 25.9681 42.1586 25.9681C41.7141 25.9681 41.2697 25.9046 40.8252 25.7776L40.6348 26.9205H40.6983L40.9522 26.9839C41.0157 26.9839 41.2062 26.9839 41.3332 26.9839C41.7141 27.0474 41.9681 27.0474 42.1586 27.0474C43.7459 27.0474 44.5078 26.5395 44.5078 25.3966C44.5078 24.6982 44.1903 24.3173 43.4284 23.9998C42.7935 23.7459 42.73 23.6824 42.73 23.4919C42.73 23.2379 42.984 23.1109 43.4919 23.1109C43.7459 23.1109 44.1903 23.1109 44.5713 23.1744L44.7617 22.0316C44.3808 21.9681 43.8094 21.9681 43.4284 21.9681C41.7776 21.9681 41.2062 22.73 41.2062 23.6189Z" fill="#DCE5E5"/>
<path d="M35.3028 26.984H34.0964V26.476C33.7155 26.857 33.2075 27.0475 32.5091 27.0475C31.6837 27.0475 31.1758 26.476 31.1758 25.7141C31.1758 24.5078 32.1282 23.8094 33.779 23.8094C33.9694 23.8094 34.1599 23.8094 34.4139 23.8094C34.4774 23.6189 34.4774 23.5554 34.4774 23.4919C34.4774 23.1744 34.2234 23.0475 33.525 23.0475C33.0805 23.0475 32.6361 23.1109 32.3186 23.1744L32.1282 23.2379H32.0012L32.1917 22.1586C32.9536 21.9681 33.398 21.9046 33.9694 21.9046C35.2393 21.9046 35.9377 22.4125 35.9377 23.3649C35.9377 23.6189 35.9377 23.8094 35.8107 24.3808L35.4932 26.1586L35.4297 26.476L35.3663 26.73V26.9205L35.3028 26.984ZM34.2234 24.7617C34.0329 24.7617 33.9694 24.7617 33.9059 24.7617C33.0805 24.7617 32.6361 25.0157 32.6361 25.5236C32.6361 25.8411 32.8266 26.0316 33.144 26.0316C33.779 26.0316 34.2234 25.5236 34.2234 24.7617Z" fill="#DCE5E5"/>
<path d="M40.1904 26.857C39.6825 26.984 39.1746 27.0475 38.6666 27.0475C37.0158 27.0475 36.127 26.2855 36.127 24.8252C36.127 23.1109 37.2063 21.9046 38.7301 21.9046C39.9365 21.9046 40.6984 22.603 40.6984 23.6824C40.6984 24.0633 40.6349 24.3808 40.5079 24.8887H37.5238C37.5238 24.9522 37.5238 25.0157 37.5238 25.0792C37.5238 25.6506 37.9682 25.9681 38.7936 25.9681C39.365 25.9681 39.8095 25.9046 40.3174 25.6506L40.1904 26.857ZM39.4285 23.9363C39.4285 23.8729 39.4285 23.7459 39.4285 23.6824C39.4285 23.3014 39.1746 23.0475 38.7301 23.0475C38.2857 23.0475 37.9047 23.3649 37.7777 23.9363H39.4285Z" fill="#DCE5E5"/>
<path d="M56.1263 24.7619C55.8723 26.4127 54.7295 27.1111 53.2056 27.1111C51.5549 27.1111 50.8564 26.0952 50.8564 24.8254C50.8564 23.1111 51.9993 21.9047 53.7771 21.9047C55.3009 21.9047 56.1263 22.9206 56.1263 24.1269C56.1263 24.4444 56.1263 24.4444 56.1263 24.7619ZM54.539 24.1269C54.539 23.619 54.3485 23.1746 53.7136 23.1746C52.9517 23.1746 52.5072 24.0635 52.5072 24.8888C52.5072 25.5238 52.8247 25.9682 53.3326 25.9682C53.6501 25.9682 54.3485 25.5238 54.4755 24.7619C54.539 24.5079 54.539 24.3174 54.539 24.1269Z" fill="white"/>
<path d="M50.9207 25.3968C50.9842 24.9524 51.0477 24.4444 51.0477 24C51.0477 23.9365 51.0477 23.873 51.0477 23.873C50.9842 24.1904 50.9207 24.5079 50.9207 24.8889C50.8572 25.0158 50.8572 25.2063 50.9207 25.3968Z" fill="white"/>
</svg>
