<svg width="192" height="179" viewBox="0 0 192 179" fill="none" xmlns="http://www.w3.org/2000/svg">
<g clip-path="url(#clip0)">
<path d="M11.8775 173.991L183.424 174.651" stroke="white"/>
<path d="M11.5663 174.21L63.0302 31.2774" stroke="white"/>
<path d="M132.269 31.2779L183.733 174.878" stroke="white"/>
<path d="M131.959 31.0578H191.34" stroke="white"/>
<path d="M63.3402 31.0578H3.95877" stroke="white"/>
<path d="M191.67 11.3545V31.3918" stroke="white"/>
<path d="M77.8557 0.333954H117.443" stroke="white"/>
<path d="M3.95877 11.6884H78.5155" stroke="white"/>
<path d="M27.7113 128.472C42.9835 126.059 67.6335 142.441 65.8919 174.325" stroke="white"/>
<path d="M36.9485 103.526C69.6214 108.583 90.0817 129.579 89.728 174.325" stroke="white"/>
<path d="M158.35 103.526C126.903 108.583 107.21 129.579 107.55 174.325" stroke="white"/>
<path d="M166.928 128.472C152.972 126.059 130.447 142.441 132.039 174.325" stroke="white"/>
<path d="M191.34 11.6884H116.784" stroke="white"/>
<path d="M78.1855 0V11.3545" stroke="white"/>
<path d="M117.113 11.3545V1.52588e-05" stroke="white"/>
<path d="M3.62888 11.3545V31.3918" stroke="white"/>
</g>
<defs>
<clipPath id="clip0">
<rect width="192" height="179" fill="white"/>
</clipPath>
</defs>
</svg>
