<svg width="28" height="26" viewBox="0 0 28 26" fill="none" xmlns="http://www.w3.org/2000/svg">
<path d="M27.5505 3.27799C26.9293 3.57107 26.2809 3.80554 25.6188 3.97406C26.3491 3.2267 26.8952 2.29616 27.2092 1.25572C27.2979 0.955307 26.9976 0.698859 26.745 0.860055C25.8235 1.44622 24.8338 1.88585 23.7962 2.1716C23.7348 2.18626 23.6734 2.19358 23.6119 2.19358C23.4208 2.19358 23.2365 2.12031 23.0932 1.9811C21.9942 0.940653 20.5744 0.369141 19.1 0.369141C18.4652 0.369141 17.8167 0.479047 17.1887 0.684205C15.2365 1.33632 13.7211 3.07283 13.2502 5.20501C13.0727 6.00367 13.0249 6.80964 13.1068 7.59364C13.1136 7.68157 13.0795 7.74751 13.0522 7.77682C13.0112 7.82811 12.9498 7.85742 12.8884 7.85742C12.8816 7.85742 12.8747 7.85742 12.8679 7.85742C8.58121 7.43245 4.71773 5.21234 1.98735 1.61474C1.85083 1.43157 1.5778 1.45355 1.46858 1.65871C0.936159 2.64054 0.64947 3.76891 0.64947 4.91926C0.64947 6.67776 1.30476 8.33368 2.45152 9.53532C1.9737 9.41076 1.50954 9.22025 1.07268 8.96381C0.861074 8.83925 0.608514 9.00044 0.601688 9.25689C0.574384 11.8653 1.99418 14.188 4.12387 15.2358C4.08292 15.2358 4.03514 15.2358 3.99418 15.2358C3.65288 15.2358 3.31159 15.1992 2.97711 15.1332C2.74503 15.0819 2.54708 15.3237 2.61534 15.5728C3.30476 17.8955 5.16824 19.6027 7.3935 19.9911C5.54367 21.3246 3.3935 22.028 1.15459 22.028H0.458343C0.239913 22.028 0.0624389 22.1819 0.00783137 22.4017C-0.0467761 22.6215 0.0556129 22.8559 0.239913 22.9659C2.76551 24.5412 5.63923 25.3765 8.56756 25.3765C11.1273 25.3765 13.5164 24.8343 15.6802 23.7572C17.6597 22.7754 19.414 21.3612 20.8884 19.5734C22.2604 17.9028 23.3321 15.9758 24.0761 13.8436C24.786 11.814 25.1614 9.64522 25.1614 7.57166V7.47641C25.1614 7.14669 25.3048 6.83163 25.5437 6.61914C26.472 5.81316 27.2775 4.86064 27.9464 3.79089C28.117 3.49048 27.844 3.13878 27.5505 3.27799Z" fill="#EBBA87"/>
</svg>
