<svg width="80" height="48" viewBox="0 0 80 48" fill="none" xmlns="http://www.w3.org/2000/svg">
<rect x="0.5" y="0.5" width="79" height="47" rx="7.5" fill="white" stroke="#D8D8D8"/>
<path d="M33.3516 31.5812L36.0322 16.5027H40.2207L37.6238 31.5812H33.3516Z" fill="#3C58BF"/>
<path d="M33.3516 31.5812L36.7861 16.5027H40.2207L37.6238 31.5812H33.3516Z" fill="#293688"/>
<path d="M52.7855 16.6702C51.9478 16.3351 50.6075 16 48.9321 16C44.7436 16 41.7279 18.0942 41.7279 21.11C41.7279 23.3717 43.8222 24.5445 45.4976 25.2984C47.173 26.0524 47.6756 26.555 47.6756 27.2251C47.6756 28.2304 46.3353 28.733 45.1625 28.733C43.4871 28.733 42.5656 28.4817 41.1415 27.8953L40.5551 27.644L39.9688 31.0786C40.974 31.4974 42.8169 31.9163 44.7436 31.9163C49.1834 31.9163 52.1154 29.822 52.1154 26.6388C52.1154 24.8796 51.0264 23.5393 48.5133 22.4503C47.0054 21.6963 46.0839 21.2775 46.0839 20.5236C46.0839 19.8534 46.8379 19.1833 48.5133 19.1833C49.9374 19.1833 50.9426 19.4346 51.6965 19.7696L52.1154 19.9372L52.7855 16.6702Z" fill="#3C58BF"/>
<path d="M52.7855 16.6702C51.9478 16.3351 50.6075 16 48.9321 16C44.7436 16 42.4818 18.0942 42.4818 21.11C42.4818 23.3717 43.8222 24.5445 45.4976 25.2984C47.173 26.0524 47.6756 26.555 47.6756 27.2251C47.6756 28.2304 46.3353 28.733 45.1625 28.733C43.4871 28.733 42.5656 28.4817 41.1415 27.8953L40.5551 27.644L39.9688 31.0786C40.974 31.4974 42.8169 31.9163 44.7436 31.9163C49.1834 31.9163 52.1154 29.822 52.1154 26.6388C52.1154 24.8796 51.0264 23.5393 48.5133 22.4503C47.0054 21.6963 46.0839 21.2775 46.0839 20.5236C46.0839 19.8534 46.8379 19.1833 48.5133 19.1833C49.9374 19.1833 50.9426 19.4346 51.6965 19.7696L52.1154 19.9372L52.7855 16.6702Z" fill="#293688"/>
<path d="M59.9891 16.5027C58.9838 16.5027 58.2299 16.5865 57.8111 17.5917L51.5283 31.5812H56.0519L56.8896 29.0682H62.2509L62.7535 31.5812H66.7744L63.2561 16.5027H59.9891ZM58.0624 26.5551C58.3137 25.8011 59.7378 22.1153 59.7378 22.1153C59.7378 22.1153 60.0728 21.1938 60.3241 20.6074L60.5755 22.0315C60.5755 22.0315 61.4132 25.8011 61.5807 26.6388H58.0624V26.5551Z" fill="#3C58BF"/>
<path d="M60.9943 16.5027C59.9891 16.5027 59.2351 16.5865 58.8163 17.5917L51.5283 31.5812H56.0519L56.8896 29.0682H62.2509L62.7535 31.5812H66.7744L63.2561 16.5027H60.9943ZM58.0624 26.5551C58.3974 25.7174 59.7378 22.1153 59.7378 22.1153C59.7378 22.1153 60.0728 21.1938 60.3241 20.6074L60.5755 22.0315C60.5755 22.0315 61.4132 25.8011 61.5807 26.6388H58.0624V26.5551Z" fill="#293688"/>
<path d="M25.6441 27.0576L25.2252 24.8796C24.4713 22.3665 22.042 19.6021 19.3613 18.2618L23.131 31.6649H27.6545L34.4399 16.5864H29.9163L25.6441 27.0576Z" fill="#3C58BF"/>
<path d="M25.6441 27.0576L25.2252 24.8796C24.4713 22.3665 22.042 19.6021 19.3613 18.2618L23.131 31.6649H27.6545L34.4399 16.5864H30.754L25.6441 27.0576Z" fill="#293688"/>
<path d="M14 16.5027L14.7539 16.6702C20.1152 17.9268 23.8011 21.11 25.2252 24.8797L23.7173 17.7592C23.466 16.754 22.7121 16.5027 21.7906 16.5027H14Z" fill="#FFBC00"/>
<path d="M14 16.5027C19.3613 17.7592 23.8011 21.0263 25.2252 24.7959L23.8011 18.8482C23.5498 17.843 22.7121 17.2566 21.7906 17.2566L14 16.5027Z" fill="#F7981D"/>
<path d="M14 16.5027C19.3613 17.7592 23.8011 21.0263 25.2252 24.7959L24.2199 21.5289C23.9686 20.5236 23.6335 19.5184 22.4607 19.0995L14 16.5027Z" fill="#ED7C00"/>
<path d="M29.8328 26.555L26.9846 23.7068L25.6443 26.8901L25.3092 24.7959C24.5553 22.2828 22.1259 19.5184 19.4453 18.178L23.215 31.5812H27.7385L29.8328 26.555Z" fill="#051244"/>
<path d="M37.6238 31.5813L34.0217 27.8954L33.3516 31.5813H37.6238Z" fill="#051244"/>
<path d="M47.2567 26.3875C47.5918 26.7225 47.7593 26.9738 47.6756 27.3089C47.6756 28.3142 46.3353 28.8168 45.1625 28.8168C43.4871 28.8168 42.5656 28.5655 41.1415 27.9791L40.5551 27.7278L39.9688 31.1623C40.974 31.5812 42.8169 32 44.7436 32C47.4243 32 49.6023 31.2461 50.8588 29.9058L47.2567 26.3875Z" fill="#051244"/>
<path d="M52.1152 31.5813H56.0524L56.8901 29.0682H62.2514L62.754 31.5813H66.7749L65.3509 25.4661L60.3247 20.6075L60.576 21.9478C60.576 21.9478 61.4137 25.7174 61.5812 26.5551H58.0629C58.398 25.7174 59.7383 22.1153 59.7383 22.1153C59.7383 22.1153 60.0734 21.1939 60.3247 20.6075" fill="#051244"/>
</svg>
